<?xml version="1.0" standalone="no"?><!DOCTYPE svg PUBLIC "-//W3C//DTD SVG 1.1//EN" "http://www.w3.org/Graphics/SVG/1.1/DTD/svg11.dtd"><svg t="1605943963034" class="icon" viewBox="0 0 1024 1024" version="1.1" xmlns="http://www.w3.org/2000/svg" p-id="3829" xmlns:xlink="http://www.w3.org/1999/xlink" width="200" height="200"><defs><style type="text/css"></style></defs><path d="M46.4 66.304l398.272 0 0 382.4L46.4 448.704 46.4 66.304zM0 495.04l491.008 0L491.008 20.032 0 20.032 0 495.04z" p-id="3830" fill="#8a8a8a"></path><path d="M579.392 66.304l398.272 0 0 382.4L579.392 448.704 579.392 66.304zM532.992 495.04 1024 495.04 1024 20.032 532.992 20.032 532.992 495.04z" p-id="3831" fill="#8a8a8a"></path><path d="M46.4 576.192l398.272 0 0 382.336L46.4 958.528 46.4 576.192zM0 1004.864l491.008 0L491.008 529.856 0 529.856 0 1004.864z" p-id="3832" fill="#8a8a8a"></path><path d="M579.392 576.192l398.272 0 0 382.336L579.392 958.528 579.392 576.192zM532.992 1004.864 1024 1004.864 1024 529.856 532.992 529.856 532.992 1004.864z" p-id="3833" fill="#8a8a8a"></path></svg>