<?xml version="1.0" standalone="no"?><!DOCTYPE svg PUBLIC "-//W3C//DTD SVG 1.1//EN" "http://www.w3.org/Graphics/SVG/1.1/DTD/svg11.dtd"><svg t="1605943980730" class="icon" viewBox="0 0 1025 1024" version="1.1" xmlns="http://www.w3.org/2000/svg" p-id="4121" xmlns:xlink="http://www.w3.org/1999/xlink" width="200.1953125" height="200"><defs><style type="text/css"></style></defs><path d="M0 533.376l0.32 0L0.32 266.56l0.064 0 0 0.064 41.6 0 0 10.304 114.752 0L156.736 244.288 42.112 248.384l0 0.704L41.984 266.688 41.984 266.56l-41.6 0c0-54.08 43.136-56 45.632-56l772.672-29.76 26.56-75.456 7.488 0L852.736 105.024l65.536 0c8.768-19.328 28.096-36.672 50.752-36.672 30.784 0 55.68 24.96 55.68 55.744 0 30.72-24.896 55.744-55.68 55.744-21.44 0-39.872-14.784-49.216-32.512l-45.632 0-128 422.272c2.304-1.216 4.16-1.408 5.312-0.32 54.656 0 65.152 139.84-40.768 141.12-1.664 0.32-3.392 0.512-5.184 0.512L37.632 710.912c-13.952 0-25.216-24.704-25.216-38.656s11.264-23.168 25.216-23.168l668.032 0c1.664 0 3.456 0.192 5.12 0.512 37.888 1.344 35.712-41.92 4.8-39.872-0.512-0.128-1.024-0.448-1.344-0.768L46.08 589.76 46.08 588.992C43.52 588.992 0 587.52 0 533.376M725.056 503.68l-80.128 0L634.368 566.656l72.576 1.792L725.056 503.68zM745.6 440.32l-90.112 0-5.376 32.192 81.024 0L745.6 440.32zM682.688 276.992l106.56 0 17.792-55.808-115.84 4.096L682.688 276.992zM671.872 342.144l97.92 0 13.376-34.112-105.728 0L671.872 342.144zM660.992 407.168l90.688 0 12.096-33.92-97.152 0L660.992 407.168zM528.128 276.992l122.432 0 8.448-50.56L530.496 230.976 528.128 276.992zM524.672 342.144l115.008 0 5.696-34.112L526.464 308.032 524.672 342.144zM521.216 407.168l107.776 0 5.568-33.92L523.008 373.248 521.216 407.168zM517.696 472.512l100.352 0L623.36 440.32 519.488 440.32 517.696 472.512zM512.896 563.648l89.536 2.176L612.736 503.68 516.032 503.68 512.896 563.648zM363.968 276.992 496 276.992l2.432-44.8L365.76 236.864 363.968 276.992zM361.024 342.144l131.52 0 1.792-34.112L362.56 308.032 361.024 342.144zM358.08 407.168l130.944 0 1.792-33.92L359.552 373.248 358.08 407.168zM355.072 472.512l130.496 0L487.296 440.32 356.544 440.32 355.072 472.512zM351.104 559.616l129.728 3.264L484.032 503.68 353.664 503.68 351.104 559.616zM188.8 276.992l143.04 0 1.792-38.976L188.8 243.136 188.8 276.992zM188.8 342.144l140.096 0 1.6-34.112L188.8 308.032 188.8 342.144zM188.8 407.168l137.152 0 1.536-33.92L188.8 373.248 188.8 407.168zM188.8 472.512l134.208 0L324.416 440.32 188.8 440.32 188.8 472.512zM188.8 555.584l130.24 3.2 2.56-55.104L188.8 503.68 188.8 555.584zM41.984 342.144l114.752 0L156.736 308.032 41.984 308.032 41.984 342.144zM41.984 407.168l114.752 0 0-33.92L41.984 373.248 41.984 407.168zM41.984 472.512l114.752 0L156.736 440.32 41.984 440.32 41.984 472.512zM41.984 533.376l0.32 17.152 0 1.344 114.432 2.816L156.736 503.68 41.984 503.68 41.984 533.376zM690.88 850.496c0 58.048-47.104 105.216-105.28 105.216s-105.28-47.104-105.28-105.216c0-58.176 47.104-105.344 105.28-105.344S690.88 792.32 690.88 850.496M633.728 850.496c0-26.624-21.568-48.128-48.128-48.128-26.624 0-48.128 21.504-48.128 48.128 0 26.56 21.504 48.064 48.128 48.064C612.16 898.56 633.728 877.056 633.728 850.496M253.76 850.496c0 58.048-47.104 105.216-105.28 105.216-58.112 0-105.152-47.104-105.152-105.216 0-58.176 47.04-105.344 105.152-105.344C206.656 745.216 253.76 792.32 253.76 850.496M196.608 850.496c0-26.624-21.504-48.128-48.128-48.128-26.56 0-48.064 21.504-48.064 48.128 0 26.56 21.504 48.064 48.064 48.064C175.104 898.56 196.608 877.056 196.608 850.496" p-id="4122" fill="#8a8a8a"></path></svg>