<?xml version="1.0" standalone="no"?><!DOCTYPE svg PUBLIC "-//W3C//DTD SVG 1.1//EN" "http://www.w3.org/Graphics/SVG/1.1/DTD/svg11.dtd"><svg t="1605939445899" class="icon" viewBox="0 0 1162 1024" version="1.1" xmlns="http://www.w3.org/2000/svg" p-id="3156" xmlns:xlink="http://www.w3.org/1999/xlink" width="226.953125" height="200"><defs><style type="text/css"></style></defs><path d="M58.163642 925.9361c0-136.132004 110.743574-246.875579 246.875579-246.875579l551.885718 0c136.161086 0 246.875579 110.772656 246.875579 246.875579l0 39.900258L58.163642 965.836358 58.163642 925.9361zM305.039221 620.867797C136.829968 620.867797 0 757.697765 0 925.9361l0 98.0639 1161.993241 0 0-98.0639c0-168.238335-136.85905-305.068303-305.068303-305.068303L305.039221 620.867797zM334.09196 305.039221c0-136.102922 110.772656-246.875579 246.875579-246.875579 136.161086 0 246.875579 110.772656 246.875579 246.875579 0 136.132004-110.743574 246.875579-246.875579 246.875579C444.864616 551.914799 334.09196 441.171225 334.09196 305.039221M580.967539 0C412.787368 0 275.9574 136.85905 275.9574 305.039221c0 168.180171 136.829968 305.010139 305.010139 305.010139 168.238335 0 305.039221-136.829968 305.039221-305.010139C886.006759 136.85905 749.205873 0 580.967539 0z" p-id="3157" fill="#8a8a8a"></path></svg>